<svg xmlns="http://www.w3.org/2000/svg" width="140" height="140" viewBox="0 0 140 140">
  <path fill="#222" d="M67 13.4c-1 3.2-1.5 3.6-4.601 3.6C59.2 17 59 17.2 59 20.4c0 3 .5 3.8 4 5.7 2.2 1.3 4 3 4 3.8 0 .8-2.101 3.7-4.7 6.3-4.2 4.2-4.7 5.3-5.1 10.3-.2 3-.6 5.5-.9 5.5-.2 0-1.7-.9-3.2-2.1-6.5-4.8-18.3-5.5-26.1-1.4-4 2.1-8.7 7.9-9.9 12.2-2.3 8.2-.899 13 7.601 26 6.3 9.5 8 14.1 8.899 24.6 1 11 3.101 13.5 13.8 16.3 12.301 3.301 41 2.601 51.7-1.1 7.2-2.6 8.601-4.6 9.4-13.4 1.1-11.199 3.399-17.6 10.3-28 6.6-9.899 7.7-13.399 7-21.2-1.5-15.1-18.9-22.8-33.8-15.1l-5.8 3-.7-5.5c-.601-4.8-1.2-6-5.101-9.7C75 31.4 74.8 28.9 79.5 26c2.899-1.8 3.5-2.8 3.5-5.6 0-3.2-.2-3.4-3.4-3.4-2.899 0-3.399-.4-4.2-3.3-.8-2.6-1.5-3.3-4.1-3.5-2.8-.3-3.2.1-4.3 3.2zM47.5 54c9.8 4.7 16.7 14 18 24 1.1 8 1.399 8.8 4 9.4 4.1 1 6.5-.9 6.5-5.301C76 67.8 90.5 52 103.5 52c9.6 0 15.5 5.3 15.5 13.9 0 7.3-8.101 20.9-15.5 26-2.9 1.899-4.7 2.3-10.601 2.3-3.899-.1-10.399-.6-14.5-1.2-5.199-.8-9.5-.8-14.699-.1-7.5 1.1-13.801 1.5-19.7 1.2-2.9-.1-4.5-1.2-9.5-6.4-10.4-10.9-14-22-9.601-29.3 3.801-6.2 14.5-8.3 22.601-4.4zm46.399 56.4c1.9.6 3.601 1.6 3.801 2.3.899 2.6-3.2 3.1-15 2.1-8-.7-15.4-.7-23.4 0-11.4 1-15.3.5-15.3-1.899 0-1.801 5.399-3.101 15.5-3.801 12-.9 29.7-.2 34.399 1.3z"/>
  <path fill="#222" d="M34.3 57.1c-4 1.2-7.3 5.3-7.3 9.2 0 4.6 3.8 11.601 9.5 17.3 4.5 4.5 5.6 5.1 10.5 5.7 6.1.7 12.8-.5 14.2-2.5 2.1-3.1-1.2-15.2-5.7-21.2-5.5-7-14.101-10.5-21.2-8.5zM99.3 57c-9.1 2.1-16.5 11.3-18.4 22.8-1.3 8.1.3 9.4 10.6 9.4 7.399 0 7.7-.101 12.3-3.9C110 80.1 115 71.8 115 66.7c0-2.9-.7-4.6-2.9-6.8-1.6-1.6-3.8-2.9-4.899-2.9-1.101 0-2.601-.2-3.4-.4-.701-.2-2.801 0-4.501.4z"/>
</svg>
