<svg xmlns="http://www.w3.org/2000/svg" width="140" height="140" viewBox="0 0 140 140">
  <path fill="#222" d="M62.8 21.1c-6.8 3.5-9.101 10.1-6.4 17.8.9 2.4 1.5 4.5 1.4 4.6-.2.1-2 1.1-4 2.4-6.7 4-9.7 14.6-6.4 22.4.7 1.8 2.8 4.5 4.601 6.101 2.6 2.199 3 2.899 1.899 3.6-5 2.8-12.2 9.2-14.8 13-4.7 7-6.3 12.5-6.8 24.2L31.699 126H110.3l-.601-10.8c-.399-7.3-1.199-12.5-2.699-16.4-2.5-6.7-9.301-14.7-15.601-18.399C89 79 87 77.6 87 77.3s1.199-1.399 2.6-2.6c3.1-2.4 6.3-9 6.4-13.1 0-5.3-2.301-10.6-6-14-2.101-1.8-4.301-3.5-5-3.8-1.101-.3-1.101-1.1-.2-3.8.7-1.8 1.2-5.2 1.2-7.6C86 22 73.1 15.6 62.8 21.1z"/>
</svg>
