<svg xmlns="http://www.w3.org/2000/svg" width="140" height="140" viewBox="0 0 140 140">
  <path fill="#222" d="M64.061 13.8c-3.5 2.7-4.101 6.8-2 13.5 2.3 7.3 2.199 17.3-.101 29.2l-1.7 9-2.3-5c-4.8-10.6-7.3-19.8-7.1-26 .1-3.3.2-7.2.2-8.7.199-6.5-7.2-11.1-13.601-8.4-4.2 1.7-5.7 3.8-6.3 8.4-.4 3.3-.1 4.4 2.6 7.4 4.5 5.1 5.101 7.7 5.101 20.6l-.1 11.7-3.899-4.3c-6.2-6.9-8.4-12.3-7.601-19 .5-4.7.301-6.3-1.399-9-3.4-5.5-8.7-6.6-14-3-6.2 4.2-5.9 12.5.5 17.3 2.8 2.2 3.3 3.3 3.899 8.5.4 3.2 2 10.9 3.5 16.9 2.5 9.699 3.5 11.8 7.9 17.3 2.7 3.5 5.7 7.8 6.6 9.6 1.601 3.101 1.601 3.5-.899 10.3-4.3 12-3.5 13.4 9 16.601 9.6 2.399 45.399 2.399 56.399 0 11.8-2.601 13.3-5.5 8.5-16.9-1.5-3.6-2.3-7-2-8.399.3-1.2 3.4-5.7 6.7-10 5.9-7.4 6.2-8.101 9-19.601 1.5-6.6 3.1-14.3 3.4-17.2.6-4.3 1.199-5.4 3.899-7.1 6.9-4.5 6.5-14.7-.7-18.1-4.399-2.1-8-1.3-11.899 2.7-2.9 2.9-3 3.2-2.3 9.3.6 5.6.3 7-1.801 11.2-1.399 2.7-4.1 6.7-6.1 8.9l-3.5 4-.3-6c-.7-15.5.6-21.8 5-25.9 7.5-6.7-.7-19.8-10.3-16.6-6 2-7 4.1-6.7 14.1.2 7.7-.101 10.1-2.7 17.9-1.7 5-3.9 10.7-4.9 12.7l-1.899 3.6-1.601-9C76.46 45 76.36 33.6 78.36 28c2.199-6.2 1.899-10.3-1-13.4-2.9-3.2-9.6-3.6-13.299-.8zm9.599 4.4c1.7 1.7 1.5 5.3-.3 6.8-3.8 3.1-9.601-2.7-6.5-6.5 1.5-1.8 5.1-2 6.8-.3zm-28.599 6.2c2.3 3.5 0 6.8-4.301 6.4-2.899-.3-3.399-.7-3.699-3.3-.301-1.9.199-3.3 1.399-4.2 1.9-1.4 5.4-.8 6.601 1.1zm57.199-1.1c1.2.9 1.7 2.3 1.4 4.2-.2 2.4-.8 3.1-3.101 3.3-5.399.6-7.699-4.3-3.5-7.2 2.701-1.9 3.001-1.9 5.201-.3zm-81.6 11.9c1.7 1.7 1.5 5.3-.3 6.8-2 1.7-6.2.5-7-2-1.4-4.4 4.1-8 7.3-4.8zm105.6.4c1.9 1.8 2 2.8.601 5.5-2 3.7-8 1.8-8-2.6-.001-4.2 4.399-5.9 7.399-2.9zm-27.9 48.5c2.8 1 4.1 2.101 4.3 3.5l.3 2.2-32.5-.1c-31-.101-32.6-.2-32.6-1.9 0-4.2 10.899-5.8 36.5-5.399 13.5.299 21.3.799 24 1.699zm-4.1 21.8c2.101.5 4.601 1.699 5.5 2.5 1.3 1.399 1.3 1.8.101 3-1.301 1.199-4 1.3-16 .699-8-.5-20.5-.5-27.9 0-13.1.9-16.1.4-16.1-2.199 0-1.601 5.7-3.801 12.1-4.801 7.6-1.199 36.699-.599 42.299.801z"/>
</svg>
