<svg xmlns="http://www.w3.org/2000/svg" width="140" height="140" viewBox="0 0 140 140">
  <path fill="#222" d="M31.699 19.8C29.3 22.3 29 23.3 29 30.1v7.5l7.5 7.4 7.5 7.4v35.1L34.5 97l-9.5 9.5v6.6c0 10.601-3.301 9.9 45.699 9.9 48.7 0 45.301.8 45.301-10.1v-6.4l-9-9-9-9V52.4l7-6.9 7-6.9V30c0-7.7-.2-8.9-2.301-10.8-1.899-1.8-3.5-2.2-9.3-2.2-7.5 0-9.399.9-9.399 4.7 0 2-.5 2.3-3.5 2.3s-3.5-.3-3.5-2.3c0-4.1-1.7-4.7-13-4.7-11.301 0-13 .6-13 4.7 0 2-.5 2.3-3.5 2.3-2.7 0-3.5-.4-3.5-1.8 0-3.6-3.2-5.2-10.101-5.2-5.799 0-6.799.3-9.2 2.8zM91 54.5V58l-20.2-.2-20.3-.3-.301-3.3-.3-3.2H91v3.5zM91 87v3H50v-6h41v3z"/>
</svg>
