<svg xmlns="http://www.w3.org/2000/svg" width="140" height="140" viewBox="0 0 140 140">
  <path fill="#222" d="M62.3 8.9c-4.8 3-6 9.9-2.8 16l1.5 2.9-4.601 2.2c-2.5 1.2-7.8 5.4-11.899 9.4-6.2 6.1-7.5 7.9-9 12.9-2.5 8.6-.601 16.1 6.8 26.5 3 4.2 3.1 4.4 1.8 9-3.1 10.9-2.2 13.7 5.1 14.8 2.1.4 3.8 1 3.8 1.3 0 1.6-9.801 3.1-19.601 3.1-12.2 0-14.7.9-19.2 7.1l-3.1 4.2 3.9 5.8c2.199 3.2 5 6.5 6.1 7.301 1.9 1.3 2.4 1.3 4.5-.101 1.4-.899 8.2-2.3 15.7-3.3 16.1-2.2 20.3-3.3 25.1-6.5l3.8-2.6 3.2 2.1c5.7 3.5 11.7 5.1 25.9 7 9.5 1.2 14.399 2.3 15.7 3.5 1.399 1.3 2.3 1.4 3.899.6C120.8 131 129 120 129 118.4c0-1.5-5.4-7.7-8.4-9.5-2.5-1.5-5-1.9-13.3-1.9-10.101 0-20.3-1.6-20.3-3.2 0-.399 1.1-.8 2.5-.8 3.5 0 8.199-2.6 8.899-4.8.3-.9-.3-4.8-1.399-8.601l-1.9-6.8 3.9-5.7c9.699-14.3 9.1-25.7-2.101-37-4.2-4.2-12.5-10.1-16.1-11.4-1.5-.5-1.4-.9.399-4.6C83.8 18.9 83 13.8 79 9.8 76.6 7.4 75.399 7 70.8 7c-3.5 0-6.401.7-8.5 1.9zm11.099 6.7c1.9 1.8 2 2.8.601 5.5-2 3.7-8 1.8-8-2.6 0-4.2 4.399-5.9 7.399-2.9zm-.2 30.6c-.3 3.7-.3 3.8 3.2 3.8C79.8 50 80 50.2 80 53.4c0 3.2-.301 3.5-3.2 3.8-3.101.3-3.3.6-3.3 4.1s-.2 3.7-3.2 3.7c-3.2 0-3.3-.2-3.3-4 0-3.7-.2-4-2.9-4-2.4 0-2.9-.5-3.3-3-.5-3.6-.3-4 3.399-4C66.8 50 67 49.7 67 45.9c0-3.9.1-4 3.3-3.7 3.099.3 3.2.5 2.899 4zm14.5 30.4c.301.9 0 2-.8 2.5-1.599 1.1-33.399.8-34.399-.3-.4-.4-.5-1.4-.2-2.3 1-2.3 34.5-2.3 35.399.1zm-1.3 10c2.101.801 2 3-.1 3.9-1 .4-7.5.9-14.4 1.2-15.7.7-23.8-1.4-18.1-4.601C55.6 86 83.8 85.6 86.399 86.6z"/>
</svg>
