<svg xmlns="http://www.w3.org/2000/svg" width="140" height="140" viewBox="0 0 140 140">
  <path fill="#222" d="M60 20.9l-3.2 3.9-5.4-2.5c-3-1.4-7.6-2.6-10.1-2.6l-4.601-.2.2 7c.2 8.4-1 12.3-10.899 33.4-4 8.5-8.301 18.4-9.5 22.2-2.2 6.5-2.301 6.8-.5 9.6 2.5 4.2 6.199 6.8 11.6 8.3 3.2.9 5.1 1 6.3.3 1.2-.8 1.8-.5 2.601 1.101.6 1.199 2 2.199 3.199 2.399 1.7.3 3.2-1.2 7.2-7.1 2.7-4.1 6.4-8.6 8.2-10.1 3.6-3.1 10.9-7 11.6-6.3 1 1-3.8 10-9.5 18-3.3 4.5-6.6 9.5-7.5 11.2-1.199 2.4-3.699 12-3.699 14 0 .3 17.3.5 38.399.5h38.3l.7-4.6c2.2-16.7-2-43.601-9.1-57.9-8.8-17.5-21.601-28.8-34.7-30.4-4.7-.6-5-.8-6.3-4.8-1.4-4.2-6.2-9.3-8.8-9.3-.801 0-2.801 1.8-4.5 3.9zm20.8 19.6c10.399 3.1 24.399 19.7 29.399 35 3 9.1 4.801 20.5 4.801 30.4 0 7.199-1.5 10.6-4.2 9.6-2.101-.8-2.8-3.6-2.8-12.1 0-9.4-2.4-23.101-5.4-30.4C97.2 59.8 86.2 47.9 76 44.3c-4.801-1.7-6.301-3.6-3.7-4.6 2-.9 3.099-.8 8.5.8zm-29.101 8.2c.301.7-1.3 3.1-3.399 5.3-2.9 3.2-4.601 4.2-7.3 4.3-5.101.3-5.301-3.2-.601-7.9 3-3 4.101-3.5 7.2-3.2 2.1.2 3.901.8 4.1 1.5zM26 84.8c0 2.5-2.101 5-4.5 5.4-1.601.2-1.9-.2-1.7-2.2.399-4.1 6.2-7.1 6.2-3.2z"/>
</svg>
