<svg xmlns="http://www.w3.org/2000/svg" width="140" height="140" viewBox="0 0 140 140">
  <path fill="#222" d="M67.5 13.4c-1.2 2.8-2.101 3.5-4.7 3.8-2.9.3-3.3.7-3.6 3.5-.301 2.9.1 3.4 3.699 5.3 4.7 2.3 5.601 6.1 2.101 8-4 2.1-8 9-8 13.7 0 4-1.101 5.5-2.4 3.399C53.1 48.8 44.7 46 39.1 46c-12.2 0-20.7 6.7-22.5 17.6-1.2 6.7.2 10.8 7.4 21.9 7 10.8 8.399 14.5 9.899 27.1.5 3.9 1.4 8 2 9.102 1.5 3 8.5 5.898 17.301 7.3 10.5 1.7 36.3.8 43.698-1.5 8.201-2.5 10.602-5.5 11.4-14 1.1-10.899 3.2-17.101 8.6-25.3C123.6 77.9 126 72.4 126 66.8c0-6-1.3-9.5-5.3-13.6-7.7-8.1-18.7-9.9-28.7-4.6-3 1.601-5.8 3-6.2 3.2-.5.2-.8-2.2-.8-5.3 0-5.3-.2-5.8-4.5-9.9-5.5-5.4-5.7-7.7-1-10.6 2.898-1.8 3.5-2.8 3.5-5.6 0-3.2-.2-3.4-3.4-3.4-3 0-3.6-.4-4.6-3.5-.9-2.7-1.7-3.5-3.602-3.5-1.898 0-2.898.8-3.898 3.4z"/>
  <path fill="#FFF" d="M74.398 40.1C77.3 41.4 79 45.6 79 51.1c0 3.8-5.5 15.9-7.5 16.6-.602.2-2.5-2.3-4.3-5.601-4.9-9-4.4-19.899 1.1-22.1 3-1.199 3.2-1.199 6.098.101zM47.399 54.5C57.3 59.2 66.6 72.1 67.2 82l.3 4.5-5.5 1.1c-3 .6-10.3 1.4-16.2 1.8l-10.8.7-4.601-6.3C22.6 73.2 21.2 67.4 25 60.1c1.7-3.399 3.8-5 10-7.5 2.399-.9 8.399 0 12.399 1.9zM110.6 53.9c4.9 2.199 8.102 6.399 9 11.8.801 4.899-1 9.399-7.199 17.8l-4.699 6.4-6.102-.4c-3.398-.3-9.5-.7-13.699-1-4.2-.2-8.9-.9-10.4-1.5-2.602-1-2.7-1.4-2.2-5.6.7-6.5 6-16.7 11-21 5.2-4.5 13.2-8.4 17.2-8.4 1.699 0 4.799.9 7.099 1.9zM88.8 95.5c7.9.7 14.601 1.6 14.9 1.8.5.5-1.302 13.601-1.9 14.2-.2.2-3.399-.4-7.3-1.3-12.3-2.8-40.3-2.101-52 1.3-1.8.6-2.101-.1-3.2-6.7-.6-4-1-7.399-.9-7.6.2-.101 5.7-.7 12.2-1.3 6.5-.602 13.7-1.5 15.9-1.9 2.2-.5 4.898-.6 6-.4 1.1.3 8.5 1.1 16.3 1.9zM92.3 117.1c3.601.9 4.9 3.102 2.7 4.4-2.3 1.4-26.5 2.4-35.9 1.5-13.3-1.3-15.8-2.5-10.899-5.1 4.599-2.5 35.099-3 44.099-.8z"/>
</svg>
