<svg xmlns="http://www.w3.org/2000/svg" width="140" height="140" viewBox="0 0 140 140">
  <path fill="#222" d="M63.899 15.9c-3.3 3.399-3.6 6-1.3 12.199C64.7 33.8 64.7 47.9 62.5 57.9c-.8 4.1-1.7 7.6-1.9 7.8-.5.5-6.5-15.101-8.1-21.4-1.101-4.1-1.4-7.899-.9-12.899.601-6.5.4-7.2-2-10.101-6.3-7.5-17.6-3.6-17.6 6.2 0 3.5.6 5.1 3.1 7.9 1.601 1.899 3.4 5 4 6.8 1 3.7 1.2 14.399.3 20.1l-.7 3.8-2.801-3.3c-6.6-7.5-8.3-11.7-8.1-19.1.2-8-1.4-11.9-5.7-13.7C15.6 27.4 8 32.6 8 39.7c0 2.8.8 4.399 3.899 7.5 3.2 3.1 4.2 5.1 5.101 9.6.6 3.101 2.3 11 3.7 17.601C23.1 85.1 23.8 86.6 27.5 90.9c9.1 10.199 9.7 12.1 6.6 19.3-2.8 6.5-3.5 11.899-1.8 14.2 2.1 2.898 12.3 4.6 32.2 5.3 19 .6 36.1-.7 42.199-3.2 3.4-1.4 3.801-2.5 3.301-9-.102-1.6-1.102-4.6-2.102-6.7-3.5-6.899-2.799-8.899 6.701-20.6 4.299-5.2 6.5-12.4 9.899-31.601 1.101-6.3 1.699-7.6 5.5-11.399 3.899-3.9 4.199-4.5 3.699-8.3-1-7.7-8.699-12.101-14.5-8.301-4.5 2.9-5.199 4.5-5.101 12 .2 7.9-1.5 12.101-7.399 19.2-3.3 3.9-3.5 4-4.101 1.9-1-3.8-.699-18.2.5-21.8.7-1.9 2.5-5.2 4-7.301 3.801-5.199 3.801-9.6.101-13.699-2.399-2.601-3.601-3.2-7.199-3.2-3.7 0-4.801.5-7.301 3.3-2.8 3.2-2.899 3.6-2.3 10 .699 7.8-1.5 17.9-6.2 28.6-3.399 7.601-3.3 7.601-5.699-6-2-11.6-1.899-14.699.601-24.1 1.699-6.5 1.799-8.3.799-10.7C77.199 12.3 69 10.8 63.899 15.9z"/>
  <path fill="#FFF" d="M74.8 21.6c.399 3.801-1.8 5.9-5.3 5-2-.5-2.5-1.199-2.5-4 0-4.1.7-4.8 4.5-4.399 2.5.299 3 .799 3.3 3.399zM44.399 24.3c1.2.9 1.7 2.3 1.4 4.2-.2 2.5-.8 3.1-3.3 3.3-1.9.3-3.3-.2-4.2-1.399-1.7-2.4-1.7-3 .7-5.4 2.4-2.401 3.001-2.401 5.4-.701zM102.398 24.3c1.201.9 1.701 2.3 1.4 4.2-.3 2.7-.699 3-3.699 3-4.4 0-6.101-3.5-3.101-6.5 2.302-2.3 3.002-2.4 5.4-.7zM20.8 36.2c2 2 1.5 6.6-.8 7.3-3.7 1.2-6-.3-6-4 0-1.8.6-3.6 1.3-3.8 2.2-.9 4.3-.7 5.5.5zM126.8 36.2c2.7 2.7.7 7.8-2.899 7.8-2.101 0-4.899-2.6-4.899-4.5-.002-3.5 5.298-5.8 7.798-3.3zM48 50.7c0 2.399 6 14 9.7 18.8l3.6 4.8 1.8-2.399c2.1-2.7 6.9-16.8 6.9-20.3 0-5.399 1.5-3 3.6 5.7 2.2 9.2 5.801 17.2 7.4 16.2 1.898-1.2 8.3-11.8 11.5-19l3.5-8V53c0 6.8 2.3 22.6 3.398 23.7.301.3 4.701-3.5 9.701-8.601 5-5 8.799-8.3 8.5-7.399-.301 1-1.301 5.2-2.201 9.3-1.5 7.1-3.799 13-5 13-.199 0-2.299-1-4.6-2.1-15-7.7-51.6-7.801-68.5-.301-4.1 1.801-5.9 2.101-6.9 1.301C29.7 81.4 28.2 76.7 27 71.7c-1.101-5.101-2.3-9.9-2.601-10.9C24.1 59.9 28 63.3 33 68.3c5 4.9 9.3 8.7 9.6 8.4C43.7 75.6 46 59.8 46 53c0-4.6.3-6.1 1-5 .5.8 1 2.1 1 2.7z"/>
  <path fill="#FFF" d="M80 82c6.3.6 13.3 1.5 15.5 2.1 3.8 1 7.5 3.4 7.5 4.9 0 .3-14.4.6-32 .7-17.601 0-32-.3-32-.8 0-1.301 4.3-3.9 8.5-5.102 2.2-.6 7.6-1.398 12-1.8 4.399-.399 8.2-.8 8.5-.8.3-.098 5.7.302 12 .802zM93.199 96.7c6.699.6 6.801.6 6 3.2-.399 1.398-.699 4-.6 5.6v3.1l-5-.699c-2.801-.399-13-.801-22.601-.801-9.601 0-19.8.4-22.601.801l-5 .699v-3.1c.101-1.6-.3-4.2-.699-5.7-.7-2.6-.601-2.7 4-3.1 8.602-.6 39.7-.7 46.501 0zM96.699 115c4 1.4 4.9 3.6 2.101 5.1-5.2 2.801-42.9 3.301-53 .801-3.9-1-5.2-3.899-2.6-5.5C47 113 90.3 112.7 96.699 115z"/>
</svg>
