<svg xmlns="http://www.w3.org/2000/svg" width="140" height="140" viewBox="0 0 140 140">
  <path fill="#222" d="M65.6 20c-7.7 2.3-11.6 10.3-9.1 18.6 1.3 4.3 1.3 4.9-.1 5.7-3.9 2.2-8.4 7.1-9.5 10.4-2.4 7.2.7 17.5 6.3 20.7l3.1 1.899L52.9 79c-5.1 2.7-12.6 9.7-15.4 14.4-3.3 5.6-5.5 15.5-5.5 24.8v7.8h78.3l-.6-10.3c-.3-5.601-1.3-12.5-2.2-15.3-2.4-7.101-7.9-14-15-18.801l-6.1-4.1 4.199-4c4.7-4.5 6-8.7 4.9-16-.6-4.5-5.1-10.4-9.8-13-1.7-.9-1.7-1.3-.2-5.7C89.7 26.7 78.6 16.2 65.6 20z"/>
  <path fill="#FFF" d="M74.1 26c1.801 0 4.9 4 4.9 6.4 0 1.3-.9 4.3-1.9 6.6-1.1 2.4-1.7 4.9-1.4 5.6.2.7 2.2 2.4 4.399 3.9 5.2 3.4 7.9 7.9 7.9 13.3 0 4.5-1.7 6.8-8.8 12.5-2.9 2.3-1.7 4.7 4.6 9 12.9 8.9 18.101 16.8 19 28.7l.5 7H38.7l.5-7c.9-12.1 5.4-18.7 19.8-29.3 5.8-4.3 6.2-6.7 1.5-10.4-9.2-7.1-8.6-16.8 1.4-23.9 4.4-3.2 5.1-5.9 2.6-10.4-3.7-6.5.8-14.1 7.3-12.4.8.2 1.8.4 2.3.4z"/>
</svg>
