<svg xmlns="http://www.w3.org/2000/svg" width="140" height="140" viewBox="0 0 140 140">
  <path fill="#222" d="M61.699 20C60.3 21.6 59 23.4 58.8 24c-.2.7-2.3.2-5.601-1.5-2.8-1.4-7.5-2.9-10.3-3.2l-5.1-.6.7 6.1c.8 7-.601 13-5.9 24.4-9.4 20.5-13.5 29.8-15 34.5L15.8 89l2.899 4c3.2 4.5 8.4 7.4 12 6.7 1.7-.3 3.2.3 4.9 2 3.9 3.899 7.1 2.8 11.6-3.7 2.101-3 5.5-7.2 7.601-9.3 3.8-4 11.899-9.3 12.8-8.4 1.2 1.2-1.4 6.601-8.1 16.7-7.301 10.8-11.5 19.9-11.5 24.5v2.5h75.799l.7-7.3c.899-9.4-.899-28.9-3.5-39.2-3.802-14.7-12-28.9-21.7-37.5-6.4-5.6-11.4-8.1-17.9-8.7-5-.5-5.398-.8-6.5-4C73.5 22.9 68.3 17 66 17c-1 0-2.9 1.3-4.301 3z"/>
  <path fill="#FFF" d="M48.199 26.6l3.2 1.601-2.5 1.399C45.199 31.7 44 31.3 44 28c0-3.5.1-3.5 4.199-1.4zM68 29.8c3 9.6 2.5 9.2 10.3 9.2 5.3 0 7.8.5 10.3 2.1 5.5 3.4 14.601 14.2 19.101 22.5 6.5 12.2 8.399 20.3 9 38.101l.601 15.199-30.199.301c-24 .199-30.101 0-30.101-1 0-1.9 3.699-8.801 8.899-16.7C72.898 89 75 83.6 75 76c0-2.5 1.1-8.2 2.398-12.6 2.602-8.7 2.5-10.9-.5-9.4-2.5 1.4-6.5 8.5-7.898 14-1 4-1.7 4.9-5.7 7-6.101 3.2-13.8 10.4-18.8 17.4-4.301 5.898-6.2 6.6-5.7 2.1.3-2.6.1-2.7-2.5-2.1-7.601 1.898-8.8 1.8-11.601-1C22.5 89.3 22 88 22.5 86.1c.3-1.5 4.8-11.398 9.899-22.1C37.5 53.3 42.3 43.1 43 41.3c1-2.6 2.3-3.6 6.699-5.3 8.801-3.3 13.301-5.9 14.5-8.5C65.6 24.4 66.5 25 68 29.8z"/>
  <path fill="#222" d="M44.3 49c-3.3 2-5 5.7-3.9 8.5.8 2.2 3.3 1.9 8.3-1 4.1-2.5 6.3-6.1 4.8-8.4-1-1.7-5.7-1.3-9.2.9zM26.5 82.6c-2.2 2.3-1.5 5.8 1.199 6.2 3 .4 5.301-3.899 3.301-6.3-1.601-1.9-2.5-1.9-4.5.1z"/>
</svg>
