<svg xmlns="http://www.w3.org/2000/svg" width="140" height="140" viewBox="0 0 140 140">
  <path fill="#222" d="M28.699 19.8C26.199 22.4 26 23.3 26 30.7v8.1l7.899 6.9 8 6.8V71L42 89.5l-9 9-9 9v7c0 4.2.5 7.6 1.199 8.3.9.9 12 1.2 43.801 1.2 49.3 0 46 .7 46-9.6v-5.9l-9.5-9.7-9.5-9.7V53.2l8-6.8 8-6.9v-8.6c0-8-.2-8.7-2.801-11.2-2.5-2.4-3.5-2.7-10.301-2.7-8.398 0-12.199 2-11.199 6 .5 1.7.101 2-2.6 2-2.601 0-3.101-.4-3.101-2.3 0-4.5-2.802-5.7-13.2-5.7C58.5 17 56 18.2 56 22.8c0 1.7-.601 2.2-2.5 2.2-2 0-2.5-.5-2.5-2.3 0-4.3-2.9-5.7-11.601-5.7-7.5 0-8.2.2-10.7 2.8z"/>
  <path fill="#FFF" d="M45 27.3c0 3.601 1.899 4.7 8.1 4.7 7.6 0 8.9-.6 8.9-4.1V25h7c6.6 0 7 .1 7 2.3 0 3.7 1.898 4.7 9.199 4.7C91 32 92.1 31.7 93 29.9c.699-1.101.898-2.7.6-3.5-.4-1.101.7-1.4 5.3-1.4 6.699 0 7.101.5 7.101 7.8 0 4.5-.2 4.9-6 9.4L94.1 47H44.5l-6-4.8c-5.9-4.8-6-5-6-9.8.1-2.7.399-5.5.899-6.2.4-.7 2.9-1.2 6.2-1.2C44.6 25 45 25.2 45 27.3zM90 70v16l-20.601-.2-20.5-.3-.2-15.8L48.5 54H90zM96.699 97.2C99.6 100.1 102 102.7 102 103s-14.7.4-32.7.2l-32.7-.3 5.4-5.4 5.399-5.5h44l5.3 5.2zM109 113.5v3.5H30v-7h79z"/>
</svg>
