<svg xmlns="http://www.w3.org/2000/svg" width="140" height="140" viewBox="0 0 140 140">
  <path fill="#222" d="M66.399 8c-4.899 1.5-7.7 5.3-7.7 10.4 0 2.5.7 5.6 1.7 7.1s1.601 2.7 1.4 2.8C43.5 37.4 33.5 50.3 35.6 62.4c.8 4.899 4.3 12.1 8 16.5l2.6 3.199-1.6 6.399c-.9 3.5-1.6 7.3-1.6 8.399 0 2.899 2.6 5 7.8 6.301l4.7 1.199-5 1.399c-2.9.8-9.301 1.4-15.4 1.3-11.9 0-14.1.801-19.5 7l-3.5 4.102 3.8 5.699c2.101 3.101 4.8 6.5 6 7.5 1.9 1.801 2.2 1.801 3.9.301 1.1-1 6.1-2.102 14.7-3.2 15.199-1.899 21.5-3.601 26.699-7l3.699-2.5L74.5 121.1c5.3 3.199 11.8 4.899 25.8 6.899 7.8 1.101 13.8 2.5 15.399 3.601l2.699 1.699 4-4.5c2.301-2.5 4.9-5.898 5.801-7.5 1.699-3 1.699-3.1-1.1-7-4.301-5.898-8.101-7.3-19.301-7.1-10 .3-22-1.9-18.3-3.301 1.101-.399 3.5-1.301 5.3-1.899 5-1.899 5.398-3.7 3.1-12l-2.1-7.3 2.1-2.602c4.301-5.5 7.301-11.398 8.4-16.6.898-4.6.801-6.3-.699-11.2-2.701-8.6-12-17.3-25.4-24C80 28.2 80.5 27.1 81.3 25.8c5-8 .8-17.2-8.399-18.3-1.901-.2-4.801 0-6.502.5z"/>
  <path fill="#FFF" d="M75 16c1.1 1.1 2 2.7 2 3.5 0 2.1-3.602 5.5-5.801 5.5-3 0-5.399-2.5-5.399-5.5 0-5.1 5.5-7.2 9.2-3.5zm2.5 17.9c6.3 2.9 16.199 10.7 19.1 15.1 5 7.6 3.801 18.7-2.5 22.4-6.3 3.6-37.8 4-45.399.5-5.6-2.602-8.3-12.801-5.1-19.5C47.5 44.1 63.8 32 70.898 32c1.402 0 4.402.9 6.602 1.9zM90.199 83l-.399 3.5H52.199L51.8 83l-.3-3.5h39zm-.301 10c2.801 1.4 2.701 3.6-.1 4.3-4.4 1.101-27.5 2-33.2 1.3-5.8-.8-8-2.6-5.7-4.898 2.501-2.502 34.5-3.202 39-.702zM77.6 106.5c6.7 4.8 11.801 6.2 26.4 7.4 10.8.898 12.699 1.3 14.199 3.199 1.4 1.601 1.5 2.5.699 4.101-1 1.8-1.699 1.899-8.699 1.3-20.199-1.7-31.899-4.9-36.6-10l-2.4-2.6-2.6 2.6c-3.4 3.4-9.6 6.1-17.1 7.4-10.801 1.8-26.301 3.3-27.4 2.6-.6-.3-1.1-1.7-1.1-3.1 0-3.602 4.3-5 17-5.7 13.1-.8 17.1-1.9 24-6.8 3-2.102 6.199-3.9 7.101-3.9.798 0 3.798 1.6 6.5 3.5z"/>
  <path fill="#222" d="M67.8 46.7c-.3 3.3-.7 3.8-3 4.1-2.5.3-2.8.8-2.8 3.8 0 3.101.199 3.4 3 3.4 2.8 0 3 .2 3 4s.199 4 3 4c2.8 0 3-.2 3-3.9 0-3.699.199-4 3.3-4.3 2.8-.3 3.2-.7 3.5-3.5.3-2.899.101-3.2-3-3.5-3-.3-3.3-.6-3.601-4.1C73.898 43.4 73.6 43 71 43c-2.601 0-2.9.4-3.2 3.7z"/>
</svg>
